<svg width="28" height="26" viewBox="0 0 28 26" fill="none" xmlns="http://www.w3.org/2000/svg">
<path fill-rule="evenodd" clip-rule="evenodd" d="M19.1329 0.334319C19.9743 0.334319 20.8143 0.452986 21.6129 0.720986C26.5343 2.32099 28.3076 7.72099 26.8263 12.441C25.9863 14.853 24.6129 17.0543 22.8143 18.853C20.2396 21.3463 17.4143 23.5597 14.3729 25.4663L14.0396 25.6677L13.6929 25.453C10.6409 23.5597 7.79962 21.3463 5.20095 18.8397C3.41428 17.041 2.03962 14.853 1.18628 12.441C-0.320385 7.72099 1.45295 2.32099 6.42762 0.692986C6.81428 0.559653 7.21295 0.466319 7.61295 0.414319H7.77295C8.14762 0.359653 8.51962 0.334319 8.89295 0.334319H9.03962C9.87961 0.359653 10.6929 0.506319 11.4809 0.774319H11.5596C11.6129 0.799653 11.6529 0.827653 11.6796 0.852986C11.9743 0.947653 12.2529 1.05432 12.5196 1.20099L13.0263 1.42765C13.1487 1.49295 13.2861 1.59272 13.4049 1.67895C13.4801 1.73358 13.5479 1.78277 13.5996 1.81432C13.6214 1.82716 13.6435 1.84007 13.6658 1.85308C13.7801 1.91982 13.8992 1.98933 13.9996 2.06632C15.4809 0.934319 17.2796 0.320986 19.1329 0.334319ZM22.6796 9.93432C23.2263 9.91965 23.6929 9.48098 23.7329 8.91965V8.76098C23.7729 6.89298 22.6409 5.20098 20.9196 4.54765C20.373 4.35965 19.773 4.65432 19.573 5.21432C19.3863 5.77432 19.6796 6.38765 20.2396 6.58632C21.0943 6.90632 21.6663 7.74765 21.6663 8.67965V8.72098C21.641 9.02632 21.733 9.32098 21.9196 9.54765C22.1063 9.77432 22.3863 9.90632 22.6796 9.93432Z" fill="#91C788"/>
</svg>
